<svg width="400" height="142" viewBox="0 0 400 142" fill="none" xmlns="http://www.w3.org/2000/svg">
<rect width="400" height="142" rx="71" fill="#696767"/>
<rect x="106" y="12" width="42" height="15" rx="5" fill="#ACA3A3"/>
<g filter="url(#filter0_d_782_36)">
<path d="M114 71C114 81.3746 110.84 91.0112 105.431 99C96.4414 112.275 81.2396 121 64 121C36.3858 121 14 98.6142 14 71C14 43.3858 36.3858 21 64 21C91.6142 21 114 43.3858 114 71Z" fill="white"/>
<path d="M245 71C245 98.6142 222.614 121 195 121C177.76 121 162.559 112.275 153.569 99C148.16 91.0112 145 81.3746 145 71C145 43.3858 167.386 21 195 21C222.614 21 245 43.3858 245 71Z" fill="white"/>
<path d="M64 21C91.6142 21 114 43.3858 114 71C114 81.3746 110.84 91.0112 105.431 99H153.569C148.16 91.0112 145 81.3746 145 71C145 43.3858 167.386 21 195 21H64Z" fill="white"/>
</g>
<g filter="url(#filter1_di_782_36)">
<path d="M51 50.5C51 45.2533 55.2533 41 60.5 41C65.7467 41 70 45.2533 70 50.5V85.5C70 90.7467 65.7467 95 60.5 95C55.2533 95 51 90.7467 51 85.5V50.5Z" fill="#827B7B"/>
<path d="M43 77.5C37.7533 77.5 33.5 73.2467 33.5 68C33.5 62.7533 37.7533 58.5 43 58.5H78C83.2467 58.5 87.5 62.7533 87.5 68C87.5 73.2467 83.2467 77.5 78 77.5H43Z" fill="#827B7B"/>
</g>
<path d="M203 54C203 58.4183 199.418 62 195 62C190.582 62 187 58.4183 187 54C187 49.5817 190.582 46 195 46C199.418 46 203 49.5817 203 54Z" fill="#D79191"/>
<path d="M190 68C190 72.4183 186.418 76 182 76C177.582 76 174 72.4183 174 68C174 63.5817 177.582 60 182 60C186.418 60 190 63.5817 190 68Z" fill="#D7C391"/>
<path d="M217 67C217 71.4183 213.418 75 209 75C204.582 75 201 71.4183 201 67C201 62.5817 204.582 59 209 59C213.418 59 217 62.5817 217 67Z" fill="#91A0D7"/>
<path d="M204 81C204 85.4183 200.418 89 196 89C191.582 89 188 85.4183 188 81C188 76.5817 191.582 73 196 73C200.418 73 204 76.5817 204 81Z" fill="#91D7B5"/>
<rect x="117" y="81" width="22" height="3" rx="1.5" fill="#ACA3A3"/>
<path d="M273.758 37.2304C273.68 36.3728 273.333 35.7063 272.717 35.2307C272.109 34.7473 271.24 34.5056 270.11 34.5056C269.361 34.5056 268.737 34.6031 268.238 34.798C267.74 34.9929 267.365 35.2619 267.116 35.6049C266.866 35.9401 266.738 36.3261 266.73 36.7626C266.714 37.1213 266.784 37.437 266.94 37.7099C267.104 37.9827 267.338 38.2244 267.642 38.4349C267.954 38.6376 268.328 38.8169 268.765 38.9729C269.201 39.1288 269.692 39.2652 270.238 39.3822L272.296 39.8499C273.481 40.1072 274.526 40.4502 275.43 40.879C276.343 41.3078 277.107 41.8185 277.723 42.411C278.346 43.0035 278.818 43.6857 279.138 44.4575C279.457 45.2293 279.621 46.0947 279.629 47.0536C279.621 48.5661 279.239 49.8641 278.483 50.9478C277.726 52.0315 276.639 52.8618 275.22 53.4387C273.809 54.0156 272.105 54.3041 270.11 54.3041C268.106 54.3041 266.36 54.0039 264.871 53.4036C263.381 52.8033 262.224 51.8911 261.397 50.6671C260.571 49.4431 260.146 47.8956 260.123 46.0245H265.666C265.713 46.7963 265.919 47.4395 266.286 47.9541C266.652 48.4686 267.155 48.8584 267.794 49.1235C268.441 49.3886 269.19 49.5211 270.039 49.5211C270.819 49.5211 271.482 49.4158 272.027 49.2053C272.581 48.9949 273.006 48.7025 273.302 48.3283C273.598 47.9541 273.75 47.5253 273.758 47.0419C273.75 46.5897 273.61 46.2038 273.337 45.8842C273.064 45.5567 272.643 45.2761 272.074 45.0422C271.513 44.8005 270.796 44.5783 269.922 44.3756L267.42 43.7909C265.346 43.3153 263.713 42.5474 262.52 41.4871C261.327 40.4191 260.735 38.9768 260.742 37.1602C260.735 35.679 261.132 34.3809 261.935 33.2661C262.738 32.1512 263.849 31.2819 265.268 30.6582C266.687 30.0345 268.305 29.7227 270.121 29.7227C271.977 29.7227 273.587 30.0384 274.951 30.6699C276.323 31.2936 277.387 32.1707 278.144 33.3011C278.9 34.4316 279.286 35.7413 279.301 37.2304H273.758Z" fill="white"/>
<path d="M260.813 82V58.0501H277.512V62.7512H266.601V67.6628H276.658V72.3756H266.601V77.2989H277.512V82H260.813Z" fill="white"/>
<path d="M266.601 86.0501V110H260.813V86.0501H266.601Z" fill="white"/>
<path d="M282.491 54V41.6873H289.922V43.0099H283.982V47.1703H289.537V48.4929H283.982V52.6773H290.018V54H282.491ZM292.609 54V41.6873H294.1V52.6773H299.824V54H292.609ZM302.132 54V41.6873H309.563V43.0099H303.623V47.1703H309.179V48.4929H303.623V52.6773H309.66V54H302.132ZM312.251 54V41.6873H313.742V47.7955H313.886L319.417 41.6873H321.365L316.195 47.2424L321.365 54H319.561L315.281 48.2765L313.742 50.008V54H312.251ZM327.095 54H323.295V41.6873H327.263C328.457 41.6873 329.479 41.9338 330.329 42.4268C331.179 42.9157 331.83 43.6192 332.283 44.537C332.736 45.4508 332.962 46.545 332.962 47.8196C332.962 49.1022 332.734 50.2064 332.277 51.1322C331.82 52.0541 331.155 52.7635 330.281 53.2605C329.407 53.7535 328.345 54 327.095 54ZM324.786 52.6773H326.998C328.016 52.6773 328.86 52.4809 329.529 52.0882C330.199 51.6954 330.698 51.1362 331.026 50.4108C331.355 49.6853 331.519 48.8216 331.519 47.8196C331.519 46.8256 331.357 45.9699 331.032 45.2524C330.708 44.531 330.223 43.9779 329.578 43.5931C328.932 43.2043 328.129 43.0099 327.167 43.0099H324.786V52.6773ZM335.39 54H333.827L338.348 41.6873H339.887L344.408 54H342.845L339.165 43.6352H339.069L335.39 54ZM335.967 49.1903H342.268V50.513H335.967V49.1903Z" fill="white"/>
<path d="M287.225 71.7655C287.152 71.1562 286.86 70.6833 286.347 70.3466C285.834 70.0099 285.204 69.8416 284.459 69.8416C283.914 69.8416 283.437 69.9298 283.028 70.1061C282.623 70.2825 282.307 70.525 282.078 70.8336C281.854 71.1422 281.742 71.4929 281.742 71.8857C281.742 72.2144 281.82 72.4969 281.976 72.7334C282.136 72.9659 282.341 73.1603 282.589 73.3166C282.838 73.4689 283.098 73.5951 283.371 73.6953C283.643 73.7915 283.894 73.8697 284.122 73.9298L285.373 74.2665C285.693 74.3506 286.05 74.4669 286.443 74.6152C286.84 74.7635 287.219 74.9659 287.579 75.2224C287.944 75.4749 288.245 75.7996 288.481 76.1964C288.718 76.5931 288.836 77.0801 288.836 77.6573C288.836 78.3226 288.661 78.9238 288.313 79.4609C287.968 79.998 287.463 80.4248 286.798 80.7415C286.136 81.0581 285.333 81.2164 284.387 81.2164C283.505 81.2164 282.742 81.0741 282.096 80.7896C281.455 80.505 280.95 80.1082 280.581 79.5992C280.216 79.0902 280.01 78.499 279.962 77.8256H281.501C281.541 78.2906 281.697 78.6753 281.97 78.9799C282.247 79.2805 282.595 79.505 283.016 79.6533C283.441 79.7976 283.898 79.8697 284.387 79.8697C284.956 79.8697 285.467 79.7775 285.92 79.5932C286.373 79.4048 286.732 79.1443 286.996 78.8116C287.261 78.4749 287.393 78.0821 287.393 77.6332C287.393 77.2244 287.279 76.8917 287.05 76.6352C286.822 76.3787 286.521 76.1703 286.148 76.01C285.776 75.8497 285.373 75.7094 284.94 75.5891L283.425 75.1563C282.463 74.8797 281.701 74.4849 281.14 73.9719C280.579 73.4589 280.299 72.7875 280.299 71.9578C280.299 71.2685 280.485 70.6672 280.858 70.1542C281.234 69.6372 281.74 69.2364 282.373 68.9518C283.01 68.6632 283.721 68.5189 284.507 68.5189C285.301 68.5189 286.006 68.6612 286.623 68.9458C287.241 69.2264 287.73 69.6111 288.09 70.1001C288.455 70.5891 288.647 71.1442 288.667 71.7655H287.225ZM291.287 81V68.6873H295.448C296.413 68.6873 297.203 68.8616 297.816 69.2103C298.434 69.555 298.89 70.022 299.187 70.6111C299.484 71.2003 299.632 71.8576 299.632 72.5831C299.632 73.3086 299.484 73.9679 299.187 74.5611C298.894 75.1543 298.442 75.6272 297.828 75.9799C297.215 76.3286 296.43 76.503 295.472 76.503H292.49V75.1803H295.423C296.085 75.1803 296.616 75.0661 297.017 74.8376C297.417 74.6092 297.708 74.3005 297.888 73.9118C298.073 73.519 298.165 73.0761 298.165 72.5831C298.165 72.0901 298.073 71.6492 297.888 71.2604C297.708 70.8717 297.415 70.567 297.011 70.3466C296.606 70.1222 296.069 70.0099 295.399 70.0099H292.778V81H291.287ZM312.423 74.8436C312.423 76.1422 312.188 77.2645 311.719 78.2104C311.25 79.1563 310.607 79.8858 309.789 80.3988C308.972 80.9118 308.038 81.1683 306.988 81.1683C305.938 81.1683 305.004 80.9118 304.186 80.3988C303.368 79.8858 302.725 79.1563 302.256 78.2104C301.787 77.2645 301.553 76.1422 301.553 74.8436C301.553 73.545 301.787 72.4228 302.256 71.4769C302.725 70.531 303.368 69.8015 304.186 69.2885C305.004 68.7754 305.938 68.5189 306.988 68.5189C308.038 68.5189 308.972 68.7754 309.789 69.2885C310.607 69.8015 311.25 70.531 311.719 71.4769C312.188 72.4228 312.423 73.545 312.423 74.8436ZM310.98 74.8436C310.98 73.7775 310.801 72.8777 310.445 72.1442C310.092 71.4107 309.613 70.8556 309.008 70.4789C308.407 70.1021 307.733 69.9137 306.988 69.9137C306.242 69.9137 305.567 70.1021 304.962 70.4789C304.36 70.8556 303.881 71.4107 303.525 72.1442C303.172 72.8777 302.996 73.7775 302.996 74.8436C302.996 75.9098 303.172 76.8096 303.525 77.5431C303.881 78.2765 304.36 78.8316 304.962 79.2084C305.567 79.5852 306.242 79.7735 306.988 79.7735C307.733 79.7735 308.407 79.5852 309.008 79.2084C309.613 78.8316 310.092 78.2765 310.445 77.5431C310.801 76.8096 310.98 75.9098 310.98 74.8436ZM314.93 81V68.6873H319.09C320.052 68.6873 320.842 68.8516 321.459 69.1803C322.076 69.5049 322.533 69.9518 322.83 70.521C323.126 71.0901 323.274 71.7374 323.274 72.4629C323.274 73.1883 323.126 73.8316 322.83 74.3927C322.533 74.9539 322.078 75.3947 321.465 75.7154C320.852 76.032 320.068 76.1903 319.114 76.1903H315.747V74.8436H319.066C319.723 74.8436 320.252 74.7474 320.653 74.5551C321.058 74.3627 321.351 74.0901 321.531 73.7374C321.715 73.3807 321.807 72.9558 321.807 72.4629C321.807 71.9699 321.715 71.539 321.531 71.1703C321.347 70.8015 321.052 70.5169 320.647 70.3165C320.242 70.1121 319.707 70.0099 319.042 70.0099H316.421V81H314.93ZM320.725 75.4689L323.755 81H322.024L319.042 75.4689H320.725ZM325.086 70.0099V68.6873H334.32V70.0099H330.448V81H328.957V70.0099H325.086Z" fill="white"/>
<path d="M280.255 97.6873V110H278.812L272.102 100.333H271.982V110H270.491V97.6873H271.934L278.667 107.379H278.788V97.6873H280.255ZM287.038 110H283.238V97.6873H287.206C288.4 97.6873 289.423 97.9338 290.272 98.4268C291.122 98.9157 291.773 99.6192 292.226 100.537C292.679 101.451 292.906 102.545 292.906 103.82C292.906 105.102 292.677 106.206 292.22 107.132C291.763 108.054 291.098 108.764 290.224 109.261C289.35 109.754 288.288 110 287.038 110ZM284.729 108.677H286.942C287.96 108.677 288.803 108.481 289.473 108.088C290.142 107.695 290.641 107.136 290.97 106.411C291.298 105.685 291.463 104.822 291.463 103.82C291.463 102.826 291.3 101.97 290.976 101.252C290.651 100.531 290.166 99.9779 289.521 99.5931C288.875 99.2043 288.072 99.0099 287.11 99.0099H284.729V108.677ZM305.795 103.844C305.795 105.142 305.561 106.264 305.092 107.21C304.623 108.156 303.98 108.886 303.162 109.399C302.344 109.912 301.411 110.168 300.36 110.168C299.31 110.168 298.376 109.912 297.559 109.399C296.741 108.886 296.098 108.156 295.629 107.21C295.16 106.264 294.926 105.142 294.926 103.844C294.926 102.545 295.16 101.423 295.629 100.477C296.098 99.531 296.741 98.8015 297.559 98.2885C298.376 97.7754 299.31 97.5189 300.36 97.5189C301.411 97.5189 302.344 97.7754 303.162 98.2885C303.98 98.8015 304.623 99.531 305.092 100.477C305.561 101.423 305.795 102.545 305.795 103.844ZM304.352 103.844C304.352 102.777 304.174 101.878 303.817 101.144C303.465 100.411 302.986 99.8556 302.381 99.4789C301.779 99.1021 301.106 98.9137 300.36 98.9137C299.615 98.9137 298.94 99.1021 298.334 99.4789C297.733 99.8556 297.254 100.411 296.898 101.144C296.545 101.878 296.368 102.777 296.368 103.844C296.368 104.91 296.545 105.81 296.898 106.543C297.254 107.277 297.733 107.832 298.334 108.208C298.94 108.585 299.615 108.774 300.36 108.774C301.106 108.774 301.779 108.585 302.381 108.208C302.986 107.832 303.465 107.277 303.817 106.543C304.174 105.81 304.352 104.91 304.352 103.844ZM318.066 97.6873V110H316.623L309.914 100.333H309.793V110H308.302V97.6873H309.745L316.479 107.379H316.599V97.6873H318.066ZM321.05 110V97.6873H328.48V99.0099H322.541V103.17H328.096V104.493H322.541V108.677H328.577V110H321.05ZM337.901 100.765C337.829 100.156 337.537 99.6833 337.024 99.3466C336.511 99.0099 335.881 98.8416 335.136 98.8416C334.591 98.8416 334.114 98.9298 333.705 99.1061C333.3 99.2825 332.983 99.525 332.755 99.8336C332.531 100.142 332.418 100.493 332.418 100.886C332.418 101.214 332.497 101.497 332.653 101.733C332.813 101.966 333.018 102.16 333.266 102.317C333.515 102.469 333.775 102.595 334.048 102.695C334.32 102.792 334.571 102.87 334.799 102.93L336.05 103.266C336.37 103.351 336.727 103.467 337.12 103.615C337.517 103.763 337.895 103.966 338.256 104.222C338.621 104.475 338.921 104.8 339.158 105.196C339.394 105.593 339.513 106.08 339.513 106.657C339.513 107.323 339.338 107.924 338.99 108.461C338.645 108.998 338.14 109.425 337.475 109.741C336.813 110.058 336.01 110.216 335.064 110.216C334.182 110.216 333.418 110.074 332.773 109.79C332.132 109.505 331.627 109.108 331.258 108.599C330.893 108.09 330.687 107.499 330.639 106.826H332.178C332.218 107.291 332.374 107.675 332.647 107.98C332.923 108.281 333.272 108.505 333.693 108.653C334.118 108.798 334.575 108.87 335.064 108.87C335.633 108.87 336.144 108.778 336.597 108.593C337.05 108.405 337.408 108.144 337.673 107.812C337.937 107.475 338.07 107.082 338.07 106.633C338.07 106.224 337.955 105.892 337.727 105.635C337.499 105.379 337.198 105.17 336.825 105.01C336.452 104.85 336.05 104.709 335.617 104.589L334.102 104.156C333.14 103.88 332.378 103.485 331.817 102.972C331.256 102.459 330.975 101.788 330.975 100.958C330.975 100.268 331.162 99.6672 331.535 99.1542C331.911 98.6372 332.416 98.2364 333.05 97.9518C333.687 97.6632 334.398 97.5189 335.184 97.5189C335.978 97.5189 336.683 97.6612 337.3 97.9458C337.917 98.2264 338.406 98.6111 338.767 99.1001C339.132 99.5891 339.324 100.144 339.344 100.765H337.901ZM343.455 97.6873V110H341.964V97.6873H343.455ZM346.95 110H345.386L349.907 97.6873H351.447L355.968 110H354.405L350.725 99.6352H350.629L346.95 110ZM347.527 105.19H353.827V106.513H347.527V105.19Z" fill="white"/>
<defs>
<filter id="filter0_d_782_36" x="10" y="21" width="239" height="108" filterUnits="userSpaceOnUse" color-interpolation-filters="sRGB">
<feFlood flood-opacity="0" result="BackgroundImageFix"/>
<feColorMatrix in="SourceAlpha" type="matrix" values="0 0 0 0 0 0 0 0 0 0 0 0 0 0 0 0 0 0 127 0" result="hardAlpha"/>
<feOffset dy="4"/>
<feGaussianBlur stdDeviation="2"/>
<feComposite in2="hardAlpha" operator="out"/>
<feColorMatrix type="matrix" values="0 0 0 0 0 0 0 0 0 0 0 0 0 0 0 0 0 0 0.25 0"/>
<feBlend mode="normal" in2="BackgroundImageFix" result="effect1_dropShadow_782_36"/>
<feBlend mode="normal" in="SourceGraphic" in2="effect1_dropShadow_782_36" result="shape"/>
</filter>
<filter id="filter1_di_782_36" x="33.5" y="41" width="57" height="56" filterUnits="userSpaceOnUse" color-interpolation-filters="sRGB">
<feFlood flood-opacity="0" result="BackgroundImageFix"/>
<feColorMatrix in="SourceAlpha" type="matrix" values="0 0 0 0 0 0 0 0 0 0 0 0 0 0 0 0 0 0 127 0" result="hardAlpha"/>
<feOffset dy="2"/>
<feComposite in2="hardAlpha" operator="out"/>
<feColorMatrix type="matrix" values="0 0 0 0 0 0 0 0 0 0 0 0 0 0 0 0 0 0 0.15 0"/>
<feBlend mode="normal" in2="BackgroundImageFix" result="effect1_dropShadow_782_36"/>
<feBlend mode="normal" in="SourceGraphic" in2="effect1_dropShadow_782_36" result="shape"/>
<feColorMatrix in="SourceAlpha" type="matrix" values="0 0 0 0 0 0 0 0 0 0 0 0 0 0 0 0 0 0 127 0" result="hardAlpha"/>
<feOffset dx="3" dy="1"/>
<feGaussianBlur stdDeviation="2"/>
<feComposite in2="hardAlpha" operator="arithmetic" k2="-1" k3="1"/>
<feColorMatrix type="matrix" values="0 0 0 0 0.383333 0 0 0 0 0.319444 0 0 0 0 0.319444 0 0 0 0.14 0"/>
<feBlend mode="normal" in2="shape" result="effect2_innerShadow_782_36"/>
</filter>
</defs>
</svg>
